<?xml version="1.0" encoding="UTF-8"?><svg id="Layer_1" xmlns="http://www.w3.org/2000/svg" xmlns:xlink="http://www.w3.org/1999/xlink" viewBox="0 0 1098.4 1112"><defs><style>.cls-1{fill:none;}.cls-2{clip-path:url(#clippath);}.cls-3{fill:#008bcd;}.cls-4{clip-path:url(#clippath-1);}.cls-5{fill:#fff;stroke:#231f20;stroke-miterlimit:10;}</style><clipPath id="clippath"><rect class="cls-1" x="323.4" y="193.8" width="451.6" height="724.3"/></clipPath><clipPath id="clippath-1"><rect class="cls-1" x="323.4" y="193.8" width="451.6" height="724.3"/></clipPath></defs><rect class="cls-5" x=".5" y=".5" width="1097.4" height="1111"/><g id="Logo"><g class="cls-2"><g class="cls-4"><path class="cls-3" d="m558.6,705.3c0-62.9,0-125.8,0-188.7,0-8.3,1.9-16.3,7.8-22.4,3-3,6.9-5.6,10.9-7.1,4.2-1.5,9-2,13.6-2,51-.1,102-.1,153,0,6.6,0,13.1.9,19.1,4.5,7.8,4.6,11.5,11.4,12.1,20.2,0,1.1,0,2.1,0,3.2,0,105.3,0,210.6,0,315.9,0,15.6-7.5,26.9-21,33.2-11.9,5.6-24.7,9.4-37.3,13.4-42.4,13.7-84.9,27.1-127.4,40.5-6.4,2-13.1,3.2-19.7.1-4.7-2.2-8.2-5.6-9.2-10.7-1.1-5.1-1.8-10.3-1.8-15.5-.1-61.6,0-123.2,0-184.8"/><path class="cls-3" d="m540.5,679.9c0,54.3,0,108.6,0,162.9,0,4.4-.6,9.1-2.1,13.2-1.4,3.9-4.4,7.1-8.5,9.1-6.6,3.2-13.3,2.3-19.7.3-52.2-16.3-104.3-32.7-156.3-49.3-12-3.8-21.8-11-27.5-22.6-1.9-3.8-2.8-8.5-2.8-12.7-.2-90.1-.1-180.2,0-270.3,0-13.4,8.9-22.2,21.3-24.6,5.3-1,10.8-1.3,16.3-1.3,49.2-.1,98.3,0,147.5,0,8.5,0,16.5,1.9,22.7,7.9,3,2.9,5.7,6.7,7,10.5,1.6,4.7,2.2,9.9,2.2,14.8.1,54,0,108,0,162"/><path class="cls-3" d="m540.2,327.8c0,36.2,0,72.4,0,108.6,0,8.2-2.1,15.8-7.8,21.8-3.3,3.5-7.3,6.8-12.4,7.4-5.5.7-11,1.5-16.6,1.5-49.4.1-98.8,0-148.2,0-6.8,0-13.3-.9-19.4-4.6-8-4.8-11.9-11.8-12-20.8-.1-26,0-52.1,0-78.1s0-68.8,0-103.2c0-13.9,8.6-24.6,20.8-29.9,11.4-4.9,23.7-6.2,35.7-8.8,39.3-8.4,78.6-16.6,117.9-24.8,6.2-1.3,12.6-1.9,18.9-2.9,5.1-.8,9.8.7,13.6,3.6,3,2.3,6,5.5,7.3,9,1.6,4.3,2.1,9.2,2.1,13.8.2,35.8,0,71.6,0,107.4"/><path class="cls-3" d="m558.6,351.8c0-28.1-.1-56.1,0-84.2,0-6.7,1.1-13.4,6.5-18.5,3.6-3.4,7.9-5.1,12.7-5,13.4.3,25.6,5.7,38.2,9.3,43,12.4,85.9,25,128.8,37.8,10.7,3.2,19.9,8.6,26.3,18.3,2.6,3.9,3.8,8.2,3.8,12.7.1,41,.1,82.1,0,123.1,0,7.9-4,13.6-11,17.4-5.9,3.2-12.2,4.4-18.8,4.4-52.1,0-104.1,0-156.2,0-8,0-15.5-2-21.1-7.7-3.2-3.3-5.9-7.7-7.2-12.1-1.6-5.4-1.9-11.4-1.9-17.1-.2-26.1,0-52.3,0-78.4"/></g></g></g></svg>
