 <svg  version="1.0" xmlns="http://www.w3.org/2000/svg"  width="900.000000pt" height="900.000000pt" viewBox="0 0 900.000000 900.000000"  preserveAspectRatio="xMidYMid meet">  <g transform="translate(0.000000,900.000000) scale(0.100000,-0.100000)" fill="#008acc" stroke="none"> <path d="M3950 8518 c-14 -5 -47 -13 -75 -18 -82 -13 -167 -31 -221 -46 -28 -8 -62 -14 -76 -14 -14 0 -45 -7 -68 -15 -23 -8 -58 -15 -77 -15 -19 0 -44 -5 -55 -11 -12 -7 -47 -15 -77 -19 -31 -4 -76 -12 -101 -18 -25 -6 -67 -16 -95 -23 -27 -6 -70 -15 -95 -19 -43 -7 -69 -13 -185 -41 -27 -6 -72 -15 -100 -19 -27 -4 -63 -12 -78 -18 -16 -7 -43 -12 -62 -12 -19 0 -46 -5 -62 -11 -15 -6 -55 -14 -88 -19 -217 -31 -374 -118 -433 -241 l-22 -45 0 -1118 c0 -1046 1 -1120 18 -1149 38 -68 108 -114 211 -137 71 -17 1812 -17 1881 -1 25 6 61 11 81 11 20 0 42 7 49 15 7 8 18 15 24 15 18 0 91 90 109 135 25 61 27 164 27 1351 0 1265 -2 1354 -37 1395 -7 8 -13 19 -13 22 0 11 -34 43 -53 50 -9 3 -17 11 -17 17 0 13 -276 12 -310 -2z"/> <path d="M4745 7969 c-37 -14 -79 -53 -108 -99 l-22 -35 0 -1050 c0 -984 1 -1052 18 -1075 9 -13 17 -33 17 -42 0 -10 29 -47 64 -82 47 -47 73 -65 102 -71 68 -14 1911 -18 1974 -5 75 16 134 45 175 87 31 32 34 39 40 126 4 51 5 407 3 792 -3 672 -4 701 -22 730 -26 40 -122 134 -149 145 -12 6 -29 14 -37 18 -50 28 -84 42 -103 42 -12 1 -33 7 -47 15 -14 8 -39 14 -56 15 -16 0 -39 7 -50 15 -10 8 -28 14 -39 15 -18 0 -66 13 -150 42 -16 5 -46 14 -65 18 -33 8 -50 13 -130 40 -19 7 -51 16 -70 20 -19 4 -48 13 -65 18 -16 6 -57 18 -90 27 -33 9 -73 21 -90 27 -16 5 -46 13 -65 17 -19 4 -45 13 -57 19 -12 7 -32 12 -45 12 -13 0 -36 7 -52 15 -15 8 -39 15 -53 15 -13 0 -34 5 -46 12 -12 6 -38 15 -57 19 -19 4 -48 12 -65 17 -16 6 -57 18 -90 27 -33 9 -73 21 -90 27 -16 5 -43 13 -60 18 -28 8 -48 14 -130 42 -81 28 -246 43 -290 27z"/> <path d="M2222 5266 c-45 -7 -88 -18 -94 -24 -7 -7 -19 -12 -27 -12 -18 0 -91 -64 -91 -78 0 -5 -7 -15 -15 -22 -13 -11 -15 -206 -15 -1643 l0 -1631 22 -45 c21 -44 118 -152 148 -165 8 -3 35 -17 59 -31 24 -14 52 -25 61 -25 9 0 25 -7 36 -15 10 -8 30 -15 44 -15 14 0 36 -7 50 -15 14 -8 37 -14 51 -15 14 0 34 -7 45 -15 10 -8 30 -15 44 -15 14 0 36 -7 50 -15 14 -8 34 -14 45 -15 11 0 33 -7 49 -15 15 -8 37 -15 47 -15 10 0 33 -6 51 -14 55 -22 101 -38 141 -46 21 -4 44 -13 50 -19 6 -6 22 -11 36 -11 15 -1 37 -7 51 -15 14 -8 37 -14 51 -15 14 0 34 -7 45 -15 10 -8 33 -15 49 -15 17 0 39 -7 49 -15 11 -8 31 -15 45 -15 14 -1 37 -7 51 -15 14 -8 34 -14 45 -15 11 0 33 -7 49 -15 15 -8 38 -15 50 -15 11 -1 32 -7 46 -15 14 -8 36 -14 50 -15 14 0 34 -6 45 -14 11 -7 34 -16 50 -18 17 -3 45 -11 63 -17 68 -23 98 -33 127 -41 28 -8 53 -16 128 -41 152 -52 289 -33 335 46 48 82 47 27 47 2005 0 1940 -1 1973 -42 2021 -7 8 -13 20 -13 25 0 6 -19 28 -42 49 -106 98 -68 95 -1103 94 -620 -1 -904 -5 -963 -13z"/> <path d="M4860 5261 c-93 -14 -177 -77 -222 -169 l-23 -47 0 -2230 c0 -2156 1 -2231 19 -2265 10 -19 32 -50 49 -68 l31 -32 120 0 c86 1 128 5 146 15 14 8 36 15 50 15 14 0 34 7 44 15 11 8 31 15 45 15 14 1 37 7 51 15 14 8 36 15 50 15 14 0 34 7 44 15 11 8 30 15 43 15 12 0 37 6 55 14 51 21 99 37 138 46 35 8 82 23 130 43 14 5 41 13 60 17 38 9 86 25 138 46 18 8 41 14 51 14 10 0 32 7 47 15 16 8 38 15 49 15 11 1 31 7 45 15 14 8 36 14 51 15 14 0 30 5 36 11 6 6 29 15 50 19 40 8 86 24 141 46 18 8 43 14 55 14 12 0 31 7 41 15 11 8 31 15 44 15 13 0 33 5 45 12 12 6 35 15 52 19 60 15 150 50 278 109 61 28 137 104 168 167 l24 48 0 1911 c0 1807 -1 1913 -17 1931 -10 11 -18 23 -18 27 0 12 -74 76 -88 76 -7 0 -25 8 -39 18 -25 16 -91 17 -983 18 -525 1 -975 -2 -1000 -5z"/> </g> </svg> 