<?xml version="1.0" encoding="UTF-8"?><svg id="Layer_1" xmlns="http://www.w3.org/2000/svg" xmlns:xlink="http://www.w3.org/1999/xlink" viewBox="0 0 1017.44 1111.98"><defs><style>.cls-1{fill:none;}.cls-2{clip-path:url(#clippath);}.cls-3{fill:#008bcd;}.cls-4{clip-path:url(#clippath-1);}.cls-5{fill:#fff;stroke:#231f20;stroke-miterlimit:10;}</style><clipPath id="clippath"><rect class="cls-1" x="284.5" y="190.71" width="451.62" height="724.32"/></clipPath><clipPath id="clippath-1"><rect class="cls-1" x="284.5" y="190.71" width="451.62" height="724.32"/></clipPath></defs><rect class="cls-5" x=".5" y=".5" width="1016.44" height="1110.98"/><g id="Logo"><g class="cls-2"><g class="cls-4"><path class="cls-3" d="m519.66,702.17c0-62.88-.02-125.77.02-188.65.01-8.32,1.87-16.3,7.82-22.4,2.96-3.04,6.88-5.62,10.86-7.05,4.22-1.52,9.01-1.96,13.55-1.97,50.99-.13,101.99-.11,152.98-.03,6.63.01,13.07.93,19.05,4.49,7.82,4.64,11.51,11.4,12.08,20.18.08,1.07.02,2.14.02,3.21,0,105.31-.02,210.62.03,315.93.01,15.61-7.49,26.89-20.97,33.22-11.92,5.58-24.73,9.37-37.32,13.42-42.41,13.65-84.86,27.14-127.36,40.5-6.41,2.02-13.06,3.21-19.68.1-4.71-2.22-8.16-5.63-9.22-10.65-1.07-5.08-1.79-10.33-1.8-15.51-.13-61.6-.08-123.19-.08-184.79"/><path class="cls-3" d="m501.59,676.76c0,54.31.05,108.62-.09,162.93-.01,4.43-.62,9.09-2.13,13.21-1.43,3.87-4.37,7.07-8.48,9.07-6.59,3.2-13.3,2.33-19.67.33-52.15-16.28-104.25-32.73-156.31-49.31-12.04-3.83-21.83-11.01-27.5-22.56-1.86-3.81-2.76-8.46-2.76-12.73-.16-90.09-.15-180.17-.08-270.27,0-13.4,8.88-22.23,21.31-24.58,5.31-1,10.83-1.27,16.26-1.28,49.17-.1,98.34-.08,147.5-.03,8.46,0,16.51,1.93,22.73,7.9,2.99,2.88,5.66,6.66,6.98,10.54,1.58,4.67,2.16,9.86,2.17,14.82.15,53.98.09,107.98.09,161.97"/><path class="cls-3" d="m501.3,324.68c0,36.22.01,72.42-.01,108.63,0,8.17-2.12,15.8-7.82,21.76-3.34,3.5-7.31,6.75-12.44,7.43-5.49.72-11.03,1.46-16.55,1.47-49.39.11-98.78.09-148.17.03-6.75-.01-13.3-.94-19.37-4.55-8.04-4.78-11.93-11.79-11.98-20.83-.15-26.04-.06-52.07-.06-78.11,0-34.39.09-68.77-.05-103.17-.05-13.87,8.56-24.65,20.8-29.9,11.41-4.9,23.73-6.19,35.71-8.77,39.25-8.44,78.56-16.65,117.87-24.83,6.25-1.3,12.62-1.94,18.94-2.92,5.07-.79,9.78.72,13.62,3.57,3.04,2.26,5.96,5.55,7.29,9.02,1.63,4.25,2.11,9.17,2.13,13.81.16,35.78.09,71.57.09,107.35"/><path class="cls-3" d="m519.64,348.65c0-28.06-.11-56.14.08-84.2.05-6.73,1.12-13.4,6.51-18.46,3.59-3.38,7.85-5.11,12.66-4.99,13.37.34,25.59,5.71,38.15,9.33,43.01,12.36,85.94,25.01,128.83,37.75,10.65,3.16,19.94,8.63,26.33,18.25,2.61,3.92,3.79,8.23,3.81,12.68.13,41.04.14,82.07.01,123.1-.02,7.91-4.02,13.61-11.04,17.43-5.93,3.22-12.24,4.41-18.8,4.43-52.07.06-104.14.05-156.2.02-7.97-.01-15.51-2.01-21.13-7.7-3.23-3.28-5.93-7.74-7.2-12.14-1.58-5.43-1.89-11.36-1.94-17.08-.18-26.14-.08-52.28-.08-78.41"/></g></g></g></svg>
